<!-- <svg xmlns="http://www.w3.org/2000/svg" viewBox="0 0 32 32" width="32" height="32">
    <g fill="none" stroke="#FFFFFF" stroke-width="2" stroke-linecap="round" stroke-linejoin="round">
        <path d="M9 22 C0 23 1 12 9 13 6 2 23 2 22 10 32 7 32 23 23 22 M11 18 L16 14 21 18 M16 14 L16 29" />
    </g>
</svg> -->
<svg width="287" height="203" viewBox="0 0 287 203" fill="none" xmlns="http://www.w3.org/2000/svg">
<path d="M61.3472 70.5093L70.2606 49.5627C77.3822 32.8268 90.6183 19.4369 107.271 12.1223V12.1223C125.142 4.27244 145.123 2.61635 164.042 7.41681L176.5 10.5778V10.5778C196.878 24.1845 212.444 43.8726 220.983 66.8395L222.347 70.5093" stroke="white" stroke-width="8" stroke-linecap="round"/>
<path d="M146.789 95.4954C144.859 93.5199 141.694 93.4827 139.718 95.4122L107.526 126.855C105.551 128.785 105.514 131.95 107.443 133.926C109.373 135.901 112.538 135.939 114.514 134.009L143.129 106.06L171.078 134.675C173.008 136.65 176.173 136.687 178.149 134.758C180.124 132.828 180.162 129.663 178.232 127.687L146.789 95.4954ZM147 202.041L148.212 99.0479L138.212 98.9302L137 201.923L147 202.041Z" fill="#F1F1F1"/>
<path d="M63.1141 154.932V154.932C47.3614 153.647 39.485 153.004 37.8827 152.742C-6.00348 145.545 -7.1425 82.8429 36.4534 74.0571C38.0451 73.7363 46.3018 72.7597 62.8152 70.8067V70.8067" stroke="white" stroke-width="8" stroke-linecap="round"/>
<path d="M223.128 156.381V156.381C238.53 155.579 246.23 155.178 248.328 154.844C289.391 148.296 294.441 91.2183 255.167 77.5618C253.16 76.8642 245.65 75.1172 230.628 71.6231L223.401 69.9422" stroke="white" stroke-width="8" stroke-linecap="round"/>
</svg>
